<svg width="35" height="36" viewBox="0 0 35 36" fill="none" xmlns="http://www.w3.org/2000/svg">
<path d="M17.5 0C7.87499 0 0 8.11445 0 18.1085C0 27.1446 6.40499 34.6446 14.77 36V23.3494H10.325V18.1085H14.77V14.1144C14.77 9.5783 17.3775 7.08433 21.385 7.08433C23.2925 7.08433 25.2875 7.4277 25.2875 7.4277V11.8916H23.0825C20.9125 11.8916 20.23 13.2831 20.23 14.7109V18.1085H25.095L24.3075 23.3494H20.23V36C24.3537 35.3274 28.1088 33.1545 30.8173 29.8735C33.5258 26.5927 35.0094 22.4198 35 18.1085C35 8.11445 27.125 0 17.5 0Z" fill="#0097B2"/>
</svg>
