<svg width="31" height="36" viewBox="0 0 31 36" fill="none" xmlns="http://www.w3.org/2000/svg">
<path d="M0 4.54043V31.4596C0 34.0005 1.72181 36 3.90982 36H27.0902C28.1611 36 29.1844 35.405 29.8367 34.6491C30.5353 33.8379 31 32.8105 31 31.4596V4.54043C31 1.99952 29.2782 0 27.0902 0H3.90982C2.74655 0 1.86182 0.541393 1.16326 1.35089C0.510883 2.10849 0 3.29679 0 4.54043ZM4.18983 8.10705C4.18983 6.37736 5.40076 4.86388 6.89021 4.86388C8.42584 4.86388 9.68294 6.37736 9.68294 8.10705C9.68294 9.89036 8.42584 11.2966 6.89021 11.2966C5.40076 11.2966 4.18983 9.89036 4.18983 8.10705ZM11.6833 30.3232V13.8375C11.6833 13.4587 12.0095 13.1353 12.2418 13.1353H16.1978C16.7564 13.1353 16.7564 13.8929 16.7564 14.3789C17.8734 13.0816 19.3167 12.7565 20.8062 12.7565C24.4375 12.7565 26.764 14.756 26.764 19.1892V30.3249C26.764 30.7037 26.484 31.0271 26.2054 31.0271H22.1094C21.7833 31.0271 21.5509 30.6483 21.5509 30.3249V20.2702C21.5509 18.5941 21.1324 17.6757 19.5029 17.6757C17.4549 17.6757 16.9425 19.2428 16.9425 21.3513V30.3249C16.9425 30.7037 16.6163 31.0271 16.2902 31.0271H12.2403C12.008 31.0271 11.6818 30.6483 11.6818 30.3249L11.6833 30.3232ZM4.28218 30.3232V13.8375C4.28218 13.4587 4.60837 13.1353 4.84072 13.1353H8.89055C9.26291 13.1353 9.49527 13.4051 9.49527 13.8375V30.3232C9.49527 30.702 9.21525 31.0254 8.89055 31.0254H4.84072C4.56071 31.0254 4.28218 30.6466 4.28218 30.3232Z" fill="#0097B2"/>
</svg>
