<svg width="35" height="37" viewBox="0 0 35 37" fill="none" xmlns="http://www.w3.org/2000/svg">
<path d="M27 6C25.8954 6 25 6.89544 25 8C25 9.10456 25.8954 10 27 10C28.1046 10 29 9.10456 29 8C29 6.89544 28.1046 6 27 6Z" fill="#0097B2"/>
<path fill-rule="evenodd" clip-rule="evenodd" d="M17.5 28C22.7467 28 27 23.5228 27 18C27 12.4771 22.7467 8 17.5 8C12.2533 8 8 12.4771 8 18C8 23.5228 12.2533 28 17.5 28ZM17.5 24.6667C20.9977 24.6667 23.8333 21.6818 23.8333 18C23.8333 14.3181 20.9977 11.3333 17.5 11.3333C14.0022 11.3333 11.1667 14.3181 11.1667 18C11.1667 21.6818 14.0022 24.6667 17.5 24.6667Z" fill="#0097B2"/>
<path fill-rule="evenodd" clip-rule="evenodd" d="M1.04039 5.50974C0 7.6683 0 10.494 0 16.1455V20.8545C0 26.506 0 29.3317 1.04039 31.4902C1.95555 33.389 3.41581 34.9327 5.21191 35.9001C7.2538 37 9.92678 37 15.2727 37H19.7273C25.0732 37 27.7463 37 29.788 35.9001C31.5842 34.9327 33.0445 33.389 33.9595 31.4902C35 29.3317 35 26.506 35 20.8545V16.1455C35 10.494 35 7.6683 33.9595 5.50974C33.0445 3.611 31.5842 2.06729 29.788 1.09984C27.7463 0 25.0732 0 19.7273 0H15.2727C9.92678 0 7.2538 0 5.21191 1.09984C3.41581 2.06729 1.95555 3.611 1.04039 5.50974ZM19.7273 3.36364H15.2727C12.5472 3.36364 10.6945 3.36626 9.2624 3.48994C7.86743 3.61043 7.15406 3.82881 6.65643 4.09686C5.45903 4.74184 4.48552 5.77097 3.87541 7.03679C3.62185 7.56287 3.41527 8.31699 3.3013 9.79168C3.1843 11.3056 3.18182 13.2642 3.18182 16.1455V20.8545C3.18182 23.7358 3.1843 25.6943 3.3013 27.2083C3.41527 28.6831 3.62185 29.4372 3.87541 29.9633C4.48552 31.229 5.45903 32.2581 6.65643 32.9031C7.15406 33.1712 7.86743 33.3896 9.2624 33.5101C10.6945 33.6337 12.5472 33.6364 15.2727 33.6364H19.7273C22.4528 33.6364 24.3054 33.6337 25.7376 33.5101C27.1326 33.3896 27.846 33.1712 28.3436 32.9031C29.541 32.2581 30.5144 31.229 31.1245 29.9633C31.3781 29.4372 31.5848 28.6831 31.6987 27.2083C31.8156 25.6943 31.8182 23.7358 31.8182 20.8545V16.1455C31.8182 13.2642 31.8156 11.3056 31.6987 9.79168C31.5848 8.31699 31.3781 7.56287 31.1245 7.03679C30.5144 5.77097 29.541 4.74184 28.3436 4.09686C27.846 3.82881 27.1326 3.61043 25.7376 3.48994C24.3054 3.36626 22.4528 3.36364 19.7273 3.36364Z" fill="#0097B2"/>
</svg>
